<mxfile host="app.diagrams.net" modified="2023-10-15T16:38:37.019Z" agent="Mozilla/5.0 (Windows NT 10.0; Win64; x64) AppleWebKit/537.36 (KHTML, like Gecko) Chrome/117.0.0.0 Safari/537.36" etag="7-E-ItV1EVXQe-UhozLb" version="22.0.4" type="device">
  <diagram name="Page-1" id="9361dd3d-8414-5efd-6122-117bd74ce7a7">
    <mxGraphModel dx="1434" dy="800" grid="1" gridSize="10" guides="1" tooltips="1" connect="1" arrows="1" fold="1" page="0" pageScale="1.5" pageWidth="826" pageHeight="1169" background="none" math="0" shadow="0">
      <root>
        <mxCell id="0" />
        <mxCell id="1" parent="0" />
        <mxCell id="69" value="" style="fillColor=#DEE8FF;strokeColor=none" parent="1" vertex="1">
          <mxGeometry x="40" y="50" width="1570" height="800" as="geometry" />
        </mxCell>
        <mxCell id="2" value="" style="fillColor=#CC4125;strokeColor=#660000" parent="1" vertex="1">
          <mxGeometry x="200" y="150" width="10" height="500" as="geometry" />
        </mxCell>
        <mxCell id="3" value="onCreate()" style="edgeStyle=none;verticalLabelPosition=top;verticalAlign=bottom;labelPosition=left;align=right" parent="1" edge="1">
          <mxGeometry x="110" y="49.5" width="100" height="100" as="geometry">
            <mxPoint x="110" y="149.5" as="sourcePoint" />
            <mxPoint x="200" y="149.5" as="targetPoint" />
          </mxGeometry>
        </mxCell>
        <mxCell id="4" value="App" style="shadow=1;fillColor=#A2C4C9;strokeColor=none" parent="1" vertex="1">
          <mxGeometry x="152.5" y="60" width="105" height="50" as="geometry" />
        </mxCell>
        <mxCell id="lYk4tEj1GR_d1B8QUBz5-122" style="edgeStyle=orthogonalEdgeStyle;rounded=0;orthogonalLoop=1;jettySize=auto;html=1;exitX=1;exitY=0.75;exitDx=0;exitDy=0;entryX=0;entryY=0.75;entryDx=0;entryDy=0;" edge="1" parent="1">
          <mxGeometry relative="1" as="geometry">
            <mxPoint x="354.5" y="354.00000000000045" as="sourcePoint" />
            <mxPoint x="511.78" y="354.0000000000002" as="targetPoint" />
          </mxGeometry>
        </mxCell>
        <mxCell id="lYk4tEj1GR_d1B8QUBz5-123" value="apply firestore settings" style="edgeLabel;html=1;align=center;verticalAlign=bottom;resizable=0;points=[];labelPosition=center;verticalLabelPosition=top;" vertex="1" connectable="0" parent="lYk4tEj1GR_d1B8QUBz5-122">
          <mxGeometry x="0.0448" y="3" relative="1" as="geometry">
            <mxPoint as="offset" />
          </mxGeometry>
        </mxCell>
        <mxCell id="6" value="" style="fillColor=#CC4125;strokeColor=#660000" parent="1" vertex="1">
          <mxGeometry x="344.5" y="150" width="10" height="500" as="geometry" />
        </mxCell>
        <mxCell id="7" value="SDK" style="shadow=1;fillColor=#A2C4C9;strokeColor=none" parent="1" vertex="1">
          <mxGeometry x="295" y="60" width="105" height="50" as="geometry" />
        </mxCell>
        <mxCell id="8" value="" style="edgeStyle=none;endArrow=none;dashed=1" parent="1" source="7" target="6" edge="1">
          <mxGeometry x="272.3350694444445" y="165" width="100" height="100" as="geometry">
            <mxPoint x="347.2588734567901" y="110" as="sourcePoint" />
            <mxPoint x="347.5761959876544" y="165" as="targetPoint" />
          </mxGeometry>
        </mxCell>
        <mxCell id="9" value="FirebaseAuth init" style="edgeStyle=none;verticalLabelPosition=top;verticalAlign=bottom;entryX=0;entryY=0.25;entryDx=0;entryDy=0;exitX=1;exitY=0.25;exitDx=0;exitDy=0;" parent="1" edge="1">
          <mxGeometry x="220" y="92" width="100" height="100" as="geometry">
            <mxPoint x="210" y="224.99999999999977" as="sourcePoint" />
            <mxPoint x="344.5" y="225.0000000000001" as="targetPoint" />
          </mxGeometry>
        </mxCell>
        <mxCell id="13" value="get current user" style="edgeStyle=none;verticalLabelPosition=top;verticalAlign=bottom;exitX=1;exitY=0;exitDx=0;exitDy=0;" parent="1" edge="1">
          <mxGeometry width="100" height="100" as="geometry">
            <mxPoint x="354.5" y="223" as="sourcePoint" />
            <mxPoint x="510" y="223" as="targetPoint" />
            <mxPoint as="offset" />
          </mxGeometry>
        </mxCell>
        <mxCell id="15" value="UI" style="shadow=1;fillColor=#A2C4C9;strokeColor=none" parent="1" vertex="1">
          <mxGeometry x="464.2839506172839" y="59.99999999999997" width="105" height="50" as="geometry" />
        </mxCell>
        <mxCell id="16" value="" style="edgeStyle=none;endArrow=none" parent="1" source="15" target="17" edge="1">
          <mxGeometry x="437.042824074074" y="270" width="100" height="100" as="geometry">
            <mxPoint x="514.542824074074" y="219.99999999999997" as="sourcePoint" />
            <mxPoint x="514.542824074074" y="239.99999999999997" as="targetPoint" />
          </mxGeometry>
        </mxCell>
        <mxCell id="lYk4tEj1GR_d1B8QUBz5-124" style="edgeStyle=orthogonalEdgeStyle;rounded=0;orthogonalLoop=1;jettySize=auto;html=1;exitX=1;exitY=0.5;exitDx=0;exitDy=0;entryX=0;entryY=0.54;entryDx=0;entryDy=0;entryPerimeter=0;" edge="1" parent="1">
          <mxGeometry relative="1" as="geometry">
            <mxPoint x="521.78" y="460.0000000000002" as="sourcePoint" />
            <mxPoint x="820" y="460" as="targetPoint" />
          </mxGeometry>
        </mxCell>
        <mxCell id="lYk4tEj1GR_d1B8QUBz5-128" value="[scan] button click" style="edgeLabel;html=1;align=center;verticalAlign=bottom;resizable=0;points=[];labelPosition=center;verticalLabelPosition=top;" vertex="1" connectable="0" parent="lYk4tEj1GR_d1B8QUBz5-124">
          <mxGeometry x="0.0171" relative="1" as="geometry">
            <mxPoint y="-1" as="offset" />
          </mxGeometry>
        </mxCell>
        <mxCell id="17" value="" style="fillColor=#CC4125;strokeColor=#660000" parent="1" vertex="1">
          <mxGeometry x="511.78" y="150" width="10" height="330" as="geometry" />
        </mxCell>
        <mxCell id="33" value="" style="edgeStyle=elbowEdgeStyle;elbow=horizontal;endArrow=none;dashed=1" parent="1" source="4" target="2" edge="1">
          <mxGeometry x="230.00000000000003" y="310" width="100" height="100" as="geometry">
            <mxPoint x="230.00000000000003" y="410" as="sourcePoint" />
            <mxPoint x="330" y="310" as="targetPoint" />
          </mxGeometry>
        </mxCell>
        <mxCell id="71" value="MainActivity" style="rounded=1;fontStyle=1;fillColor=#FFD966;strokeColor=none" parent="1" vertex="1">
          <mxGeometry x="40" y="10" width="150" height="30" as="geometry" />
        </mxCell>
        <mxCell id="lYk4tEj1GR_d1B8QUBz5-92" value="FirebaseFirestore init" style="edgeStyle=none;verticalLabelPosition=top;verticalAlign=bottom;entryX=0;entryY=0.75;entryDx=0;entryDy=0;exitX=1;exitY=0.75;exitDx=0;exitDy=0;" edge="1" parent="1">
          <mxGeometry x="220" y="92" width="100" height="100" as="geometry">
            <mxPoint x="210" y="355.00000000000045" as="sourcePoint" />
            <mxPoint x="344.5" y="355.0000000000002" as="targetPoint" />
          </mxGeometry>
        </mxCell>
        <mxCell id="lYk4tEj1GR_d1B8QUBz5-97" value="" style="fillColor=#CC4125;strokeColor=#660000" vertex="1" parent="1">
          <mxGeometry x="710" y="150" width="10" height="130" as="geometry" />
        </mxCell>
        <mxCell id="lYk4tEj1GR_d1B8QUBz5-102" value="" style="endArrow=classic;html=1;rounded=1;exitX=1;exitY=0.75;exitDx=0;exitDy=0;verticalAlign=bottom;labelPosition=center;verticalLabelPosition=top;align=center;entryX=0;entryY=0.75;entryDx=0;entryDy=0;dashed=1;" edge="1" parent="1">
          <mxGeometry width="50" height="50" relative="1" as="geometry">
            <mxPoint x="521.78" y="257.5000000000001" as="sourcePoint" />
            <mxPoint x="710" y="257.5000000000001" as="targetPoint" />
          </mxGeometry>
        </mxCell>
        <mxCell id="lYk4tEj1GR_d1B8QUBz5-108" value="null user" style="edgeLabel;html=1;align=center;verticalAlign=bottom;resizable=0;points=[];labelPosition=center;verticalLabelPosition=top;" vertex="1" connectable="0" parent="lYk4tEj1GR_d1B8QUBz5-102">
          <mxGeometry x="-0.0151" y="2" relative="1" as="geometry">
            <mxPoint as="offset" />
          </mxGeometry>
        </mxCell>
        <mxCell id="lYk4tEj1GR_d1B8QUBz5-111" style="edgeStyle=orthogonalEdgeStyle;rounded=0;orthogonalLoop=1;jettySize=auto;html=1;exitX=0;exitY=0;exitDx=0;exitDy=0;entryX=1;entryY=0;entryDx=0;entryDy=0;" edge="1" parent="1">
          <mxGeometry relative="1" as="geometry">
            <mxPoint x="710" y="200" as="sourcePoint" />
            <mxPoint x="521.78" y="200" as="targetPoint" />
            <Array as="points">
              <mxPoint x="620" y="200" />
              <mxPoint x="620" y="200" />
            </Array>
          </mxGeometry>
        </mxCell>
        <mxCell id="lYk4tEj1GR_d1B8QUBz5-112" value="prompt google oauth" style="edgeLabel;html=1;align=center;verticalAlign=bottom;resizable=0;points=[];labelPosition=center;verticalLabelPosition=top;" vertex="1" connectable="0" parent="lYk4tEj1GR_d1B8QUBz5-111">
          <mxGeometry x="0.0035" y="-2" relative="1" as="geometry">
            <mxPoint as="offset" />
          </mxGeometry>
        </mxCell>
        <mxCell id="lYk4tEj1GR_d1B8QUBz5-115" value="condition" style="shape=umlFrame;whiteSpace=wrap;html=1;pointerEvents=0;fillColor=#ffe6cc;strokeColor=#d79b00;" vertex="1" parent="1">
          <mxGeometry x="520" y="150" width="190" height="130" as="geometry" />
        </mxCell>
        <mxCell id="lYk4tEj1GR_d1B8QUBz5-152" style="edgeStyle=orthogonalEdgeStyle;rounded=0;orthogonalLoop=1;jettySize=auto;html=1;exitX=0;exitY=0.75;exitDx=0;exitDy=0;entryX=1;entryY=0.75;entryDx=0;entryDy=0;" edge="1" parent="1">
          <mxGeometry relative="1" as="geometry">
            <mxPoint x="820" y="540.0000000000002" as="sourcePoint" />
            <mxPoint x="354.5" y="540.0000000000005" as="targetPoint" />
          </mxGeometry>
        </mxCell>
        <mxCell id="lYk4tEj1GR_d1B8QUBz5-174" value="add document to firestore" style="edgeLabel;html=1;align=center;verticalAlign=bottom;resizable=0;points=[];labelPosition=center;verticalLabelPosition=top;" vertex="1" connectable="0" parent="lYk4tEj1GR_d1B8QUBz5-152">
          <mxGeometry x="0.0813" relative="1" as="geometry">
            <mxPoint as="offset" />
          </mxGeometry>
        </mxCell>
        <mxCell id="lYk4tEj1GR_d1B8QUBz5-129" value="" style="fillColor=#CC4125;strokeColor=#660000" vertex="1" parent="1">
          <mxGeometry x="820" y="150" width="10" height="480" as="geometry" />
        </mxCell>
        <mxCell id="lYk4tEj1GR_d1B8QUBz5-132" style="edgeStyle=orthogonalEdgeStyle;rounded=0;orthogonalLoop=1;jettySize=auto;html=1;entryX=0.5;entryY=0;entryDx=0;entryDy=0;" edge="1" parent="1" source="lYk4tEj1GR_d1B8QUBz5-131" target="lYk4tEj1GR_d1B8QUBz5-129">
          <mxGeometry relative="1" as="geometry" />
        </mxCell>
        <mxCell id="lYk4tEj1GR_d1B8QUBz5-131" value="&lt;&lt;service&gt;&gt;&#xa;WifiManager" style="shadow=1;fillColor=#A2C4C9;strokeColor=none" vertex="1" parent="1">
          <mxGeometry x="766.25" y="60" width="117.5" height="50" as="geometry" />
        </mxCell>
        <mxCell id="lYk4tEj1GR_d1B8QUBz5-139" value="" style="fillColor=#CC4125;strokeColor=#660000" vertex="1" parent="1">
          <mxGeometry x="1000" y="385" width="10" height="255" as="geometry" />
        </mxCell>
        <mxCell id="lYk4tEj1GR_d1B8QUBz5-147" style="edgeStyle=orthogonalEdgeStyle;rounded=0;orthogonalLoop=1;jettySize=auto;html=1;exitX=0.957;exitY=0.597;exitDx=0;exitDy=0;entryX=0;entryY=0.25;entryDx=0;entryDy=0;exitPerimeter=0;" edge="1" parent="1">
          <mxGeometry relative="1" as="geometry">
            <mxPoint x="829.9999999999999" y="410.01" as="sourcePoint" />
            <mxPoint x="1000.43" y="410.2600000000001" as="targetPoint" />
          </mxGeometry>
        </mxCell>
        <mxCell id="lYk4tEj1GR_d1B8QUBz5-149" value="init wifi event listener" style="edgeLabel;html=1;align=center;verticalAlign=bottom;resizable=0;points=[];labelPosition=center;verticalLabelPosition=top;" vertex="1" connectable="0" parent="lYk4tEj1GR_d1B8QUBz5-147">
          <mxGeometry x="-0.0545" y="2" relative="1" as="geometry">
            <mxPoint x="1" as="offset" />
          </mxGeometry>
        </mxCell>
        <mxCell id="lYk4tEj1GR_d1B8QUBz5-150" style="edgeStyle=orthogonalEdgeStyle;rounded=0;orthogonalLoop=1;jettySize=auto;html=1;exitX=0.957;exitY=0.597;exitDx=0;exitDy=0;entryX=0;entryY=0.25;entryDx=0;entryDy=0;exitPerimeter=0;" edge="1" parent="1">
          <mxGeometry relative="1" as="geometry">
            <mxPoint x="1000.43" y="540.2600000000001" as="sourcePoint" />
            <mxPoint x="829.9999999999999" y="540.01" as="targetPoint" />
          </mxGeometry>
        </mxCell>
        <mxCell id="lYk4tEj1GR_d1B8QUBz5-151" value="network&amp;nbsp;object" style="edgeLabel;html=1;align=center;verticalAlign=bottom;resizable=0;points=[];labelPosition=center;verticalLabelPosition=top;" vertex="1" connectable="0" parent="lYk4tEj1GR_d1B8QUBz5-150">
          <mxGeometry x="-0.0545" y="2" relative="1" as="geometry">
            <mxPoint x="-8" y="-3" as="offset" />
          </mxGeometry>
        </mxCell>
        <mxCell id="lYk4tEj1GR_d1B8QUBz5-155" value="" style="fillColor=#CC4125;strokeColor=#660000" vertex="1" parent="1">
          <mxGeometry x="710" y="300" width="10" height="130" as="geometry" />
        </mxCell>
        <mxCell id="lYk4tEj1GR_d1B8QUBz5-156" value="" style="endArrow=classic;html=1;rounded=1;exitX=1;exitY=0.75;exitDx=0;exitDy=0;verticalAlign=bottom;labelPosition=center;verticalLabelPosition=top;align=center;entryX=0;entryY=0.75;entryDx=0;entryDy=0;" edge="1" parent="1">
          <mxGeometry width="50" height="50" relative="1" as="geometry">
            <mxPoint x="521.78" y="321.5000000000001" as="sourcePoint" />
            <mxPoint x="710" y="321.5000000000001" as="targetPoint" />
          </mxGeometry>
        </mxCell>
        <mxCell id="lYk4tEj1GR_d1B8QUBz5-157" value="init firestore listener" style="edgeLabel;html=1;align=center;verticalAlign=bottom;resizable=0;points=[];labelPosition=center;verticalLabelPosition=top;" vertex="1" connectable="0" parent="lYk4tEj1GR_d1B8QUBz5-156">
          <mxGeometry x="-0.0151" y="2" relative="1" as="geometry">
            <mxPoint as="offset" />
          </mxGeometry>
        </mxCell>
        <mxCell id="lYk4tEj1GR_d1B8QUBz5-158" style="edgeStyle=orthogonalEdgeStyle;rounded=0;orthogonalLoop=1;jettySize=auto;html=1;exitX=0;exitY=0.5;exitDx=0;exitDy=0;entryX=0.989;entryY=0.651;entryDx=0;entryDy=0;entryPerimeter=0;" edge="1" parent="1">
          <mxGeometry relative="1" as="geometry">
            <mxPoint x="710" y="375" as="sourcePoint" />
            <mxPoint x="521.6700000000001" y="374.8299999999999" as="targetPoint" />
          </mxGeometry>
        </mxCell>
        <mxCell id="lYk4tEj1GR_d1B8QUBz5-159" value="add object to list" style="edgeLabel;html=1;align=center;verticalAlign=bottom;resizable=0;points=[];labelPosition=center;verticalLabelPosition=top;" vertex="1" connectable="0" parent="lYk4tEj1GR_d1B8QUBz5-158">
          <mxGeometry x="0.0487" relative="1" as="geometry">
            <mxPoint as="offset" />
          </mxGeometry>
        </mxCell>
        <mxCell id="lYk4tEj1GR_d1B8QUBz5-189" style="edgeStyle=orthogonalEdgeStyle;rounded=0;orthogonalLoop=1;jettySize=auto;html=1;exitX=0.5;exitY=0;exitDx=0;exitDy=0;entryX=1;entryY=0.5;entryDx=0;entryDy=0;" edge="1" parent="1" source="lYk4tEj1GR_d1B8QUBz5-164" target="lYk4tEj1GR_d1B8QUBz5-187">
          <mxGeometry relative="1" as="geometry" />
        </mxCell>
        <mxCell id="lYk4tEj1GR_d1B8QUBz5-164" value="Network" style="swimlane;fontStyle=0;childLayout=stackLayout;horizontal=1;startSize=26;fillColor=none;horizontalStack=0;resizeParent=1;resizeParentMax=0;resizeLast=0;collapsible=1;marginBottom=0;whiteSpace=wrap;html=1;rounded=1;shadow=1;glass=0;swimlaneLine=1;" vertex="1" parent="1">
          <mxGeometry x="850" y="580" width="140" height="208" as="geometry" />
        </mxCell>
        <mxCell id="lYk4tEj1GR_d1B8QUBz5-165" value="+ ssid: string" style="text;strokeColor=none;fillColor=none;align=left;verticalAlign=top;spacingLeft=4;spacingRight=4;overflow=hidden;rotatable=0;points=[[0,0.5],[1,0.5]];portConstraint=eastwest;whiteSpace=wrap;html=1;glass=0;" vertex="1" parent="lYk4tEj1GR_d1B8QUBz5-164">
          <mxGeometry y="26" width="140" height="26" as="geometry" />
        </mxCell>
        <mxCell id="lYk4tEj1GR_d1B8QUBz5-166" value="+ macid: string" style="text;strokeColor=none;fillColor=none;align=left;verticalAlign=top;spacingLeft=4;spacingRight=4;overflow=hidden;rotatable=0;points=[[0,0.5],[1,0.5]];portConstraint=eastwest;whiteSpace=wrap;html=1;" vertex="1" parent="lYk4tEj1GR_d1B8QUBz5-164">
          <mxGeometry y="52" width="140" height="26" as="geometry" />
        </mxCell>
        <mxCell id="lYk4tEj1GR_d1B8QUBz5-167" value="+ latitude: double" style="text;strokeColor=none;fillColor=none;align=left;verticalAlign=top;spacingLeft=4;spacingRight=4;overflow=hidden;rotatable=0;points=[[0,0.5],[1,0.5]];portConstraint=eastwest;whiteSpace=wrap;html=1;" vertex="1" parent="lYk4tEj1GR_d1B8QUBz5-164">
          <mxGeometry y="78" width="140" height="26" as="geometry" />
        </mxCell>
        <mxCell id="lYk4tEj1GR_d1B8QUBz5-168" value="+ longitude: double" style="text;strokeColor=none;fillColor=none;align=left;verticalAlign=top;spacingLeft=4;spacingRight=4;overflow=hidden;rotatable=0;points=[[0,0.5],[1,0.5]];portConstraint=eastwest;whiteSpace=wrap;html=1;" vertex="1" parent="lYk4tEj1GR_d1B8QUBz5-164">
          <mxGeometry y="104" width="140" height="26" as="geometry" />
        </mxCell>
        <mxCell id="lYk4tEj1GR_d1B8QUBz5-169" value="+ elevation: double?" style="text;strokeColor=none;fillColor=none;align=left;verticalAlign=top;spacingLeft=4;spacingRight=4;overflow=hidden;rotatable=0;points=[[0,0.5],[1,0.5]];portConstraint=eastwest;whiteSpace=wrap;html=1;" vertex="1" parent="lYk4tEj1GR_d1B8QUBz5-164">
          <mxGeometry y="130" width="140" height="26" as="geometry" />
        </mxCell>
        <mxCell id="lYk4tEj1GR_d1B8QUBz5-170" value="+ wpa: string" style="text;strokeColor=none;fillColor=none;align=left;verticalAlign=top;spacingLeft=4;spacingRight=4;overflow=hidden;rotatable=0;points=[[0,0.5],[1,0.5]];portConstraint=eastwest;whiteSpace=wrap;html=1;" vertex="1" parent="lYk4tEj1GR_d1B8QUBz5-164">
          <mxGeometry y="156" width="140" height="26" as="geometry" />
        </mxCell>
        <mxCell id="lYk4tEj1GR_d1B8QUBz5-171" value="+ strength: double" style="text;strokeColor=none;fillColor=none;align=left;verticalAlign=top;spacingLeft=4;spacingRight=4;overflow=hidden;rotatable=0;points=[[0,0.5],[1,0.5]];portConstraint=eastwest;whiteSpace=wrap;html=1;" vertex="1" parent="lYk4tEj1GR_d1B8QUBz5-164">
          <mxGeometry y="182" width="140" height="26" as="geometry" />
        </mxCell>
        <mxCell id="lYk4tEj1GR_d1B8QUBz5-179" value="Network Document" style="swimlane;fontStyle=0;childLayout=stackLayout;horizontal=1;startSize=26;fillColor=none;horizontalStack=0;resizeParent=1;resizeParentMax=0;resizeLast=0;collapsible=1;marginBottom=0;whiteSpace=wrap;html=1;rounded=1;shadow=1;glass=0;swimlaneLine=1;" vertex="1" parent="1">
          <mxGeometry x="450" y="560" width="240" height="104" as="geometry" />
        </mxCell>
        <mxCell id="lYk4tEj1GR_d1B8QUBz5-180" value="+ uid: string [google]" style="text;strokeColor=none;fillColor=none;align=left;verticalAlign=top;spacingLeft=4;spacingRight=4;overflow=hidden;rotatable=0;points=[[0,0.5],[1,0.5]];portConstraint=eastwest;whiteSpace=wrap;html=1;glass=0;" vertex="1" parent="lYk4tEj1GR_d1B8QUBz5-179">
          <mxGeometry y="26" width="240" height="26" as="geometry" />
        </mxCell>
        <mxCell id="lYk4tEj1GR_d1B8QUBz5-182" value="+ time_created: double [server_timestamp]" style="text;strokeColor=none;fillColor=none;align=left;verticalAlign=top;spacingLeft=4;spacingRight=4;overflow=hidden;rotatable=0;points=[[0,0.5],[1,0.5]];portConstraint=eastwest;whiteSpace=wrap;html=1;" vertex="1" parent="lYk4tEj1GR_d1B8QUBz5-179">
          <mxGeometry y="52" width="240" height="26" as="geometry" />
        </mxCell>
        <mxCell id="lYk4tEj1GR_d1B8QUBz5-187" value="+ network object" style="text;strokeColor=none;fillColor=none;align=left;verticalAlign=top;spacingLeft=4;spacingRight=4;overflow=hidden;rotatable=0;points=[[0,0.5],[1,0.5]];portConstraint=eastwest;whiteSpace=wrap;html=1;" vertex="1" parent="lYk4tEj1GR_d1B8QUBz5-179">
          <mxGeometry y="78" width="240" height="26" as="geometry" />
        </mxCell>
      </root>
    </mxGraphModel>
  </diagram>
</mxfile>
